# xmcd
#
# Track frame offsets:
#	150
#	13275
#	27438
#	42005
#	55943
#	69102
#	83874
#	97318
#	112447
#	127867
#	142051
#	157057
#	170659
#	183852
#	196813
#	212879
#	225864
#	239310
#
# Disc length: 3395 seconds
#
# Revision: 1
# Processed by: cddbd v1.5.2PL0 Copyright (c) Steve Scherf et al.
# Submitted via: audiograbber 1.83.01
#
DISCID=fd0d4112
DTITLE=Billie Holiday - Tenderly - The Best Of Billie Holiday
DYEAR=2006
DGENRE=Blues
TTITLE0=That Ole Devil Called Love
TTITLE1=God Bless The Child
TTITLE2=Strange Fruit
TTITLE3=The Man I Love
TTITLE4=I Loves You Porgy
TTITLE5=Fine And Mellow
TTITLE6=Night And Day
TTITLE7=Lover Man
TTITLE8=Don't Explain
TTITLE9=Solitude
TTITLE10=Ain't Nobody's Business If I Do
TTITLE11=All Of Me
TTITLE12=I Cover The Waterfront
TTITLE13=You Go To My Head
TTITLE14=These Foolish Things
TTITLE15=I Only Have Eyes For You
TTITLE16=Moonglow
TTITLE17=Tenderly
EXTD=Horizon HZCD1034
EXTT0=
EXTT1=
EXTT2=
EXTT3=
EXTT4=
EXTT5=
EXTT6=
EXTT7=
EXTT8=
EXTT9=
EXTT10=
EXTT11=
EXTT12=
EXTT13=
EXTT14=
EXTT15=
EXTT16=
EXTT17=
PLAYORDER=
